
	<svg xmlns="http://www.w3.org/2000/svg" xmlns:xlink="http://www.w3.org/1999/xlink" version="1.1" width="128" height="128" viewBox="0 0 100 100">


		<defs>
			<g id="background">
<path fill="url(#background-gradient)" stroke="none" d=" M 97.2 2.8 Q 94.35 0 90.6 0 L 9.4 0 Q 5.55 0 2.8 2.8 0 5.55 0 9.4 L 0 90.6 Q 0 94.35 2.8 97.2 5.55 100 9.4 100 L 90.6 100 Q 94.35 100 97.2 97.2 100 94.35 100 90.6 L 100 9.4 Q 100 5.55 97.2 2.8 Z"/>
</g><g id="bottom-1">
<path fill="#FFFFFF" fill-opacity="0.30196078431372547" stroke="none" d=" M 90.6 2.35 Q 94.45 2.35 97.3 5.05 99.9 7.65 100 11.55 L 100 9.4 Q 100 5.4 97.3 2.7 94.45 0 90.6 0 L 9.4 0 Q 5.4 0 2.7 2.7 0 5.4 0 9.4 L 0 11.55 Q 0.1 7.65 2.7 5.05 5.4 2.35 9.4 2.35 L 90.6 2.35 Z"/>
</g><mask id="mask">
<path fill="#FFFFFF" stroke="none" d=" M 97.2 2.8 Q 94.35 0 90.6 0 L 9.4 0 Q 5.55 0 2.8 2.8 0 5.55 0 9.4 L 0 90.6 Q 0 94.35 2.8 97.2 5.55 100 9.4 100 L 90.6 100 Q 94.35 100 97.2 97.2 100 94.35 100 90.6 L 100 9.4 Q 100 5.55 97.2 2.8 Z"/>
</mask>
			
	<linearGradient id="background-gradient" x1="0" y1="0" y2="1" x2="0" >
		<stop stop-color="#7e90e1" offset="0%"/>
		<stop stop-color="#090e18" offset="100%"/>
	</linearGradient>

			
			
			<svg xmlns:xlink="http://www.w3.org/1999/xlink" xmlns="http://www.w3.org/2000/svg" id="picture" viewBox="-6 -9 34 34" width="100" height="100">
    <style>
        .st0{clip-path:url(#SVGID_2_)}.st1{clip-path:url(#SVGID_4_)}.st2{clip-path:url(#SVGID_6_)}.st3{clip-path:url(#SVGID_8_);fill:#000105}.st4{clip-path:url(#SVGID_10_);enable-background:new}.st5{clip-path:url(#SVGID_12_)}.st6{clip-path:url(#SVGID_14_);fill:#e2e3e4}.st7{clip-path:url(#SVGID_16_)}.st8{clip-path:url(#SVGID_18_);enable-background:new}.st9{clip-path:url(#SVGID_20_)}.st10{clip-path:url(#SVGID_22_);fill:#1a1919}.st11{clip-path:url(#SVGID_24_)}.st12{clip-path:url(#SVGID_26_);fill:#e2e3e4}
    </style>
    <defs>
        <path id="SVGID_15_" d="M10.3 4.5c.2-.2.4-.5.6-.6 2-1.5 3.5-.4 4.9.6 1.3.8 2.4.8 2.9.8s1.2-.1 1.7-.3c.2-.1.5-.5.9-.4.4.1.6.7.6 1 0 .2-.1.3-.5.5-2.1.6-4.2.8-4.9 3.1-.6 2-.3 5-.1 6.5h-6c0-1.1 0-2.6-1.6-2.6s-1.6 1.6-1.5 2.6H2c-.2-1.5-.5-4.4.1-6.5.8-2.4 2.8-2.5 4.9-3.1.4-.1.5-.3.5-.5 0-.3-.2-.9-.6-1-.4-.1-.7.3-.9.4-.7.3-1.6.3-2.1.2-.8-.1-.6-.3-1-.4-.6-.2-.7-.4-.9-.9-.2-.4-.9 0-.9-1-.4-.1-1.1-.6-1.1-1-.1-.7 2.7-.4 3-.4C3 1.4 1.8.7 2.2.3c.7-.7 4.8.1 6 .5 1 .4 1.4 1 1.3 2.8-.2 2.1.2 1.6.8.9"/>
    </defs>
    <clipPath id="SVGID_16_">
        <use xlink:href="#SVGID_15_" overflow="visible"/>
    </clipPath>
    <g class="st7">
        <defs>
            <path id="SVGID_17_" d="M-1-4h24v24H-1z"/>
        </defs>
        <clipPath id="SVGID_18_">
            <use xlink:href="#SVGID_17_" overflow="visible"/>
        </clipPath>
        <g class="st8">
            <defs>
                <path id="SVGID_19_" d="M-5-5h32v26H-5z"/>
            </defs>
            <clipPath id="SVGID_20_">
                <use xlink:href="#SVGID_19_" overflow="visible"/>
            </clipPath>
            <g class="st9">
                <defs>
                    <path id="SVGID_21_" d="M0 0h22v16H0z"/>
                </defs>
                <clipPath id="SVGID_22_">
                    <use xlink:href="#SVGID_21_" overflow="visible"/>
                </clipPath>
                <path class="st10" d="M-5-5h32v25.6H-5z"/>
            </g>
            <g class="st9">
                <defs>
                    <path id="SVGID_23_" d="M-1-4h24v24H-1z"/>
                </defs>
                <clipPath id="SVGID_24_">
                    <use xlink:href="#SVGID_23_" overflow="visible"/>
                </clipPath>
                <g class="st11">
                    <defs>
                        <path id="SVGID_25_" d="M0 0h22v16H0z"/>
                    </defs>
                    <clipPath id="SVGID_26_">
                        <use xlink:href="#SVGID_25_" overflow="visible"/>
                    </clipPath>
                    <path class="st12" d="M-6-9h34v34H-6z"/>
                </g>
            </g>
        </g>
    </g>
</svg>
			
		</defs>

		

			<use xlink:href="#background" fill="url(#background-gradient)" />

		

			<g mask="url(#mask)">
				<g transform="
				        translate(
                                50 50
)
                            translate(0 0)  scale(1)  
                            translate(
                                -50 -50
)">
						<use xlink:href="#picture"   />
				</g>
			</g>

		<use xlink:href="#bottom-1" />



	</svg>
