
	<svg xmlns="http://www.w3.org/2000/svg" xmlns:xlink="http://www.w3.org/1999/xlink" version="1.1" width="128" height="128" viewBox="0 0 100 100">


		<defs>
			<g id="background">
<path fill="url(#background-gradient)" stroke="none" d=" M 97.2 2.8 Q 94.35 0 90.6 0 L 9.4 0 Q 5.55 0 2.8 2.8 0 5.55 0 9.4 L 0 90.6 Q 0 94.35 2.8 97.2 5.55 100 9.4 100 L 90.6 100 Q 94.35 100 97.2 97.2 100 94.35 100 90.6 L 100 9.4 Q 100 5.55 97.2 2.8 Z"/>
</g><g id="bottom-1">
<path fill="#FFFFFF" fill-opacity="0.30196078431372547" stroke="none" d=" M 90.6 2.35 Q 94.45 2.35 97.3 5.05 99.9 7.65 100 11.55 L 100 9.4 Q 100 5.4 97.3 2.7 94.45 0 90.6 0 L 9.4 0 Q 5.4 0 2.7 2.7 0 5.4 0 9.4 L 0 11.55 Q 0.1 7.65 2.7 5.05 5.4 2.35 9.4 2.35 L 90.6 2.35 Z"/>
</g><mask id="mask">
<path fill="#FFFFFF" stroke="none" d=" M 97.2 2.8 Q 94.35 0 90.6 0 L 9.4 0 Q 5.55 0 2.8 2.8 0 5.55 0 9.4 L 0 90.6 Q 0 94.35 2.8 97.2 5.55 100 9.4 100 L 90.6 100 Q 94.35 100 97.2 97.2 100 94.35 100 90.6 L 100 9.4 Q 100 5.55 97.2 2.8 Z"/>
</mask>
			
	<linearGradient id="background-gradient" x1="0" y1="0" y2="1" x2="0" >
		<stop stop-color="#171c26" offset="0%"/>
		<stop stop-color="#171c26" offset="100%"/>
	</linearGradient>

			
			
			<g transform="scale(0.1907541518484082) translate(1.562999963760376 28.74742976203561)" id="picture">
    <path d="M349.668 392.926c6.875 28.34 19.234 66.02 36.336 66.02 13.34 0 22.172-26.442 27.73-53.594-32.191 4.246-58.738-9.438-64.066-12.426zm-161.781-12.684s-32.082 18.168-67.852 14.367c6.953 28.125 19.156 64.336 35.922 64.336 17.52 0 27.266-45.597 32.023-78.52a15.56 15.56 0 0 1-.093-.183zm0 0" fill="#ffcb9d"/>
    <path d="M60.168 209.805S24 144.91 60.168 94.672c34.605-48.07 94.937-30.387 94.937-30.387s21.575-48.441 69.399-55.937c52.266-8.192 79.55 33.824 79.55 33.824s56.208-27.66 97.446 5.09c41.027 32.578 30.074 75.742 30.074 75.742s56.324 2.281 69.778 54.469c12.593 48.84-21.375 80.906-21.375 80.906s42.695 79.457-21.165 128.035c-53.457 40.664-110.12 5.945-110.12 5.945s-28.008 39.536-95.204 31.282c-46.66-5.73-65.601-43.395-65.601-43.395s-67.989 38.508-116.38-8.324c-54.296-52.547-11.339-162.117-11.339-162.117zm0 0" fill="#ffe9c8"/>
    <path d="M187.98 380.426l-.093-.184s-32.082 18.168-67.852 14.367c2.18 8.829 4.883 18.45 8.078 27.5 23.985.473 45.223-7.902 54.63-12.285 2.179-9.937 3.905-20.168 5.237-29.398zm161.688 12.5c2.43 10.02 5.55 21.203 9.32 31.476 10.313 4.325 27.489 9.692 47.469 8.621 2.883-8.347 5.29-17.96 7.277-27.668-32.191 4.243-58.738-9.44-64.066-12.43zm0 0" fill="#ffba7e"/>
    <path d="M431.574 96l.121.008c-.02-.098-.035-.192-.054-.29-.043.188-.067.282-.067.282zm27.239 263.414c-53.458 40.664-110.122 5.945-110.122 5.945s-28.003 39.532-95.203 31.282c-46.66-5.735-65.601-43.399-65.601-43.399s-67.989 38.508-116.38-8.32c-17.726-17.16-25.085-40.399-26.956-63.918-2.266 31.691 2.39 67.14 26.957 90.918 48.39 46.828 116.379 8.32 116.379 8.32s18.941 37.664 65.601 43.399c67.2 8.25 95.203-31.282 95.203-31.282s56.664 34.72 110.122-5.945c32.87-25.008 37.507-58.195 34.269-84.516-2.664 19.805-11.957 40.543-34.27 57.516zm0 0" fill="#ffdca7"/>
    <path d="M187.574 203.602c-9.004-43.649-57.644-66.196-97.394-46.047-37.11 18.812-85.508 49.91-82.13 82.91 4.126 40.32 64.141 57.328 116.962 50.082 41.18-5.649 70.277-44.149 62.925-85.059a80.206 80.206 0 0 0-.363-1.886zm0 0" fill="#ffcb9d"/>
    <path d="M187.781 204.684c-5.808 29.992-30.601 54.453-62.77 58.863-48.03 6.59-102.007-6.879-114.503-39.695-2.106 5.449-3.031 11.003-2.457 16.613 4.125 40.32 64.14 57.328 116.96 50.082 41.18-5.649 70.278-44.149 62.927-85.059a26.62 26.62 0 0 0-.157-.804zm0 0" fill="#ffba7e"/>
    <path d="M158.367 127.258s-4.808-31.992 25.856-30.356c29.945 1.602 29.695 38.649 8.43 45.426zm0 0" fill="#ffcb9d"/>
    <path d="M262.102 417.215c-2.54-.18-5.13-.43-7.7-.746-41.957-5.153-59.203-38.008-59.906-39.38-1.902-3.777-6.726-5.25-10.414-3.163-.629.36-63.707 35.308-107.625-7.196-17.25-16.695-25.71-41.64-25.21-74.253 14.8 4.761 31.835 7.304 49.495 7.304 8.281 0 16.707-.554 25.094-1.707 22.078-3.027 42.238-15.09 55.316-33.086 12.934-17.8 17.934-39.422 14.078-60.87a98.583 98.583 0 0 0-.398-2.079h-.004c-4.71-22.832-19.543-41.773-40.695-51.969-21.59-10.406-46.227-10.16-67.598.672-12.168 6.168-23.152 12.414-32.887 18.692-4.203-21.004-4.207-47.618 12.325-70.582 12.933-17.965 31.289-28.102 54.562-30.13 17.914-1.558 32.18 2.481 32.305 2.52a7.522 7.522 0 0 0 8.969-4.14c.203-.45 20.656-44.907 63.812-51.672A7.51 7.51 0 1 0 223.293.59c-41.82 6.555-64.777 41.086-72.367 54.816-6.598-1.27-17.922-2.777-31.125-1.699-27.696 2.266-50.524 14.84-66.02 36.367-21.355 29.664-19.574 63.66-13.476 88.559-4.196 3.113-8.082 6.226-11.645 9.34C8.008 206.008-1.563 223.93.207 241.238c1.418 13.86 8.672 26.301 20.98 35.977 4.454 3.5 9.57 6.625 15.215 9.36-1.722 39.667 8.22 70.25 29.606 90.948 13.441 13.008 29.617 21.098 47.789 24.067 11.422 43.851 25.183 65.203 42.012 65.203 17.152 0 25.277-24.14 27.949-32.07 3.207-9.532 6.09-21.25 8.613-34.97 10.938 12.352 30.293 27.95 60.2 31.626 2.827.348 5.679.621 8.476.82.18.012.36.016.535.016a7.507 7.507 0 0 0 7.484-6.985 7.506 7.506 0 0 0-6.964-8.015zM15.152 239.707c-2.254-22.031 25.508-48.867 78.176-75.566 8.766-4.442 18.215-6.664 27.672-6.664 9.059 0 18.129 2.039 26.61 6.125 16.902 8.144 28.75 23.261 32.507 41.472.117.567.223 1.133.328 1.7 3.125 17.386-.941 34.925-11.449 49.386-10.684 14.703-27.156 24.555-45.2 27.031-36.007 4.942-73.51-2.207-93.323-17.785-9.157-7.199-14.313-15.847-15.32-25.699zm154.364 190.227c-7.141 21.222-13.055 21.836-13.707 21.836-6.016 0-16.18-13.043-26.11-48.899 6.219.016 12.625-.5 19.196-1.574 11.714-1.918 21.914-5.246 29.398-8.211-2.555 14.668-5.543 27.242-8.777 36.848zm317.41-175.079c-1.961-3.648-6.504-5.015-10.16-3.058-3.653 1.957-5.028 6.508-3.079 10.164.102.187 10.165 19.262 12.583 43.55 3.136 31.481-7.528 56.762-31.704 75.153-20.328 15.465-43.496 21.156-68.863 16.914-19.351-3.23-32.832-11.312-32.953-11.387-3.344-2.046-7.727-1.144-10.031 2.032-.035.05-3.688 5.047-11.301 10.824-6.984 5.3-18.852 12.383-35.738 16.02a7.51 7.51 0 0 0-5.758 8.925 7.513 7.513 0 0 0 7.336 5.934c.523 0 1.054-.059 1.59-.172 22.703-4.895 37.941-15.145 46.746-22.902 11.129 40.293 24.457 59.941 40.605 59.941 14.969 0 25.836-17.398 34.047-54.606 15.512-2.917 30.164-9.484 43.414-19.566 28.348-21.562 41.317-52.379 37.504-89.11-2.812-27.14-13.773-47.788-14.238-48.656zM386.199 451.77c-1.582 0-7.355-1.305-15.238-18.098-3.43-7.309-6.73-16.414-9.852-27.18 5.918 2.188 13.211 4.371 21.508 5.801 7.383 1.273 14.672 1.8 21.828 1.59-8.96 37.418-17.843 37.887-18.246 37.887zm122.793-276.258c-6.097-23.657-21.379-41.586-44.183-51.852-9.426-4.238-18.286-6.332-24.403-7.36 1.36-15.288-.336-48.452-34.015-75.202-18.555-14.735-42.778-20.403-70.047-16.395-12.914 1.895-23.602 5.52-29.785 7.957-7.286-8.812-24.79-26.316-52.32-31.656a7.506 7.506 0 0 0-8.805 5.941 7.508 7.508 0 0 0 5.941 8.805c30.098 5.84 46.3 30 46.45 30.223a7.511 7.511 0 0 0 9.616 2.648c.52-.254 52.457-25.258 89.606 4.242 36.57 29.043 27.887 66.57 27.508 68.125-1.153 4.547 2.285 9.14 6.96 9.352 2.079.094 51.051 2.84 62.93 48.922 4.524 17.547 3.094 34.75-4.254 51.136-1.566 3.493-.175 7.723 3.157 9.61 3.8 2.152 8.765.515 10.55-3.465 8.653-19.293 10.415-40.398 5.094-61.031zm0 0"/>
    <path d="M114.723 228.637c8.523 0 15.199-8.29 15.199-18.871 0-10.578-6.676-18.868-15.2-18.868-8.523 0-15.199 8.29-15.199 18.868 0 10.582 6.676 18.87 15.2 18.87zM184.516 89.2c-11.149-.602-19.864 2.48-25.918 9.14-10.254 11.285-8.086 28.004-7.805 29.875a7.508 7.508 0 0 0 4.406 5.758l34.336 15.097c1.664.73 3.57.832 5.305.282 13.582-4.332 22.035-18.426 20.097-33.52-1.96-15.297-13.902-25.75-30.421-26.633zm8.125 44.827l-27.188-11.957c.067-4.175.945-10.007 4.3-13.668 2.911-3.175 7.477-4.558 13.962-4.203 13.254.707 15.832 9.707 16.324 13.543.77 6.016-1.57 13.09-7.398 16.285zm0 0"/>
</g>
			
		</defs>

		

			<use xlink:href="#background" fill="url(#background-gradient)" />

		

			<g mask="url(#mask)">
				<g transform="
				        translate(
                                50 50
)
                            translate(0 0)  scale(0.9425000000000004)  
                            translate(
                                -50 -50
)">
						<use xlink:href="#picture"   />
				</g>
			</g>

		<use xlink:href="#bottom-1" />



	</svg>
