<svg height="512pt" viewBox="-8 0 512 512.0005" width="512pt" xmlns="http://www.w3.org/2000/svg"><path d="m33.664062.277344c-3.445312-.867188-7.078124.335937-9.324218 3.089844-4.90625 6.011718-13.285156 17.683593-16.792969 30.972656l71.945313 41.417968 27.167968-28.613281c0 .003907-31.871094-36.546875-72.996094-46.867187zm0 0" fill="#77889a"/><path d="m462.132812.277344c3.449219-.867188 7.078126.335937 9.324219 3.089844 4.910157 6.011718 13.285157 17.683593 16.792969 30.972656l-71.945312 41.417968-27.164063-28.613281c0 .003907 31.867187-36.546875 72.992187-46.867187zm0 0" fill="#77889a"/><path d="m79.492188 75.757812-17.300782 18.230469c-53.40625-12.992187-60.253906-38.386719-54.644531-59.648437 3.238281-.40625 6.5625-.613282 9.953125-.613282 31.785156 0 58.023438 18.320313 61.992188 42.03125zm0 0" fill="#ffbfc5"/><path d="m416.308594 75.757812 17.300781 18.230469c53.40625-12.992187 60.25-38.386719 54.640625-59.648437-3.238281-.40625-6.5625-.613282-9.953125-.613282-31.78125 0-58.019531 18.320313-61.988281 42.03125zm0 0" fill="#ffbfc5"/><path d="m410.132812 431.304688c0-44.5625-72.636718-80.691407-162.234374-80.691407-89.597657 0-162.230469 36.128907-162.230469 80.691407 0 44.566406 72.632812 80.695312 162.230469 80.695312 89.597656 0 162.234374-36.128906 162.234374-80.695312zm0 0" fill="#ffa0ab"/><path d="m461.898438 185.714844c0-101.878906-95.808594-184.472656-214-184.472656-118.1875 0-214 82.59375-214 184.472656v71.453125h428zm0 0" fill="#a5b0bc"/><path d="m263.351562 1.726562c-5.105468-.3125-10.253906-.484374-15.453124-.484374-118.1875 0-214 82.59375-214 184.472656v71.453125h30.90625v-71.453125c0-97.402344 87.574218-177.160156 198.546874-183.988282zm0 0" fill="#77889a"/><path d="m54.832031 398.1875v58.785156c0 13.78125 11.171875 24.953125 24.953125 24.953125h31.128906c13.78125 0 24.949219-11.171875 24.949219-24.953125v-58.785156zm0 0" fill="#e8e8e8"/><path d="m85.738281 456.972656v-58.785156h-30.90625v58.785156c0 13.78125 11.171875 24.949219 24.953125 24.949219h30.90625c-13.78125 0-24.953125-11.167969-24.953125-24.949219zm0 0" fill="#d2d1d7"/><path d="m440.964844 398.1875v58.785156c0 13.78125-11.171875 24.953125-24.953125 24.953125h-31.125c-13.78125 0-24.953125-11.171875-24.953125-24.953125v-58.785156zm0 0" fill="#e8e8e8"/><path d="m390.839844 456.972656v-58.785156h-30.90625v58.785156c0 13.78125 11.171875 24.949219 24.953125 24.949219h30.902343c-13.777343 0-24.949218-11.167969-24.949218-24.949219zm0 0" fill="#d2d1d7"/><path d="m247.898438 171.496094c31.296874 0 62.75 2.40625 93.402343 8.929687 54.242188 11.542969 109.03125 37.800781 138.207031 87.121094 29.359376 49.628906 18.285157 111.589844-27.175781 149.011719-45.9375 37.8125-112.496093 42.59375-164.84375 13.273437-13.457031-7.539062-24.496093-14.078125-39.589843-14.078125-15.089844 0-26.128907 6.539063-39.589844 14.078125-52.347656 29.320313-118.90625 24.542969-164.84375-13.273437-45.457032-37.421875-56.53125-99.382813-27.175782-149.011719 29.175782-49.320313 83.964844-75.578125 138.207032-87.121094 30.652344-6.523437 62.105468-8.929687 93.402344-8.929687zm0 0" fill="#ffbfc5"/><path d="m74.371094 416.558594c-45.460938-37.421875-56.535156-99.382813-27.175782-149.011719 29.175782-49.320313 83.964844-75.578125 138.207032-87.121094 25.609375-5.449219 51.777344-8.019531 77.949218-8.71875-5.152343-.140625-10.304687-.210937-15.453124-.210937-31.296876 0-62.75 2.40625-93.402344 8.929687-54.242188 11.542969-109.03125 37.800781-138.207032 87.121094-29.355468 49.628906-18.28125 111.589844 27.175782 149.011719 30.15625 24.824218 69.199218 35.414062 107.277344 31.460937-27.636719-2.839843-54.371094-13.351562-76.371094-31.460937zm0 0" fill="#ffa0ab"/><g fill="#333a41"><path d="m128.882812 302.988281c-1.152343-1.152343-2.332031-2.257812-3.539062-3.3125-43.765625-38.371093-95.453125 13.320313-57.085938 57.085938 1.058594 1.203125 2.164063 2.382812 3.316407 3.539062 19.78125 19.78125 47.597656 25.339844 68.09375 15.382813 2-.972656 3.628906-2.601563 4.597656-4.601563 9.960937-20.496093 4.398437-48.308593-15.382813-68.09375zm0 0"/><path d="m366.914062 302.988281c1.152344-1.152343 2.335938-2.257812 3.539063-3.3125 43.765625-38.371093 95.457031 13.320313 57.085937 57.085938-1.058593 1.203125-2.164062 2.382812-3.316406 3.539062-19.78125 19.78125-47.59375 25.339844-68.089844 15.382813-2-.972656-3.628906-2.601563-4.601562-4.601563-9.957031-20.496093-4.398438-48.308593 15.382812-68.09375zm0 0"/><path d="m129.300781 163.03125c-4.265625 0-7.722656-3.460938-7.722656-7.726562v-21.785157c0-4.265625 3.457031-7.726562 7.722656-7.726562 4.269531 0 7.726563 3.460937 7.726563 7.726562v21.785157c0 4.265624-3.457032 7.726562-7.726563 7.726562zm0 0"/><path d="m366.496094 163.03125c-4.269532 0-7.726563-3.460938-7.726563-7.726562v-21.785157c0-4.265625 3.457031-7.726562 7.726563-7.726562 4.265625 0 7.726562 3.460937 7.726562 7.726562v21.785157c0 4.265624-3.460937 7.726562-7.726562 7.726562zm0 0"/></g></svg>