<svg height="512pt" viewBox="0 -11 512.00021 512" width="512pt" xmlns="http://www.w3.org/2000/svg"><path d="m501.039062 21.03125c-2.28125-4.785156-6.59375-8.308594-11.71875-9.65625-19.8125-5.199219-72.5-14.328125-108.652343 22.730469l104.261719 123.847656s48.058593-69.886719 16.109374-136.921875zm0 0" fill="#ffb25a"/><path d="m451.078125 142.632812-.105469.15625c.355469-.527343 32.238282-48.867187 16.488282-94.3125-5.316407-.988281-11.890626-1.84375-19.042969-1.9375-17.242188-.242187-34.8125 4.328126-47.148438 16.976563zm0 0" fill="#ff8f71"/><path d="m10.960938 21.03125c2.28125-4.785156 6.59375-8.308594 11.71875-9.65625 19.8125-5.199219 72.5-14.328125 108.652343 22.730469l-104.261719 123.847656s-48.058593-69.886719-16.109374-136.921875zm0 0" fill="#ffb25a"/><path d="m60.921875 142.632812.105469.15625c-.355469-.527343-32.238282-48.867187-16.488282-94.3125 5.316407-.988281 11.890626-1.84375 19.042969-1.9375 17.242188-.242187 34.8125 4.328126 47.148438 16.976563zm0 0" fill="#ff8f71"/><path d="m93.855469 428.144531c-50.683594-44.839843-82.636719-110.363281-82.636719-183.359375 0-135.1875 109.597656-244.785156 244.78125-244.785156 135.1875 0 244.785156 109.597656 244.785156 244.785156 0 72.996094-31.957031 138.519532-82.640625 183.359375zm0 0" fill="#f8d070"/><path d="m93.855469 428.144531h30.90625c-50.683594-44.839843-82.636719-110.363281-82.636719-183.359375 0-129.996094 101.34375-236.308594 229.328125-244.285156-1.023437.0625-2.128906-.125-3.160156-.175781-4.078125-.195313-8.160157-.324219-12.246094-.324219-.015625 0-.03125 0-.046875 0-135.183594 0-244.78125 109.597656-244.78125 244.785156 0 35.183594 7.59375 70.273438 22.3125 102.238282 14.324219 31.109374 34.984375 58.699218 60.324219 81.121093zm0 0" fill="#ffb25a"/><path d="m288.261719 260.671875c74.210937 14.957031 130.09375 80.53125 130.09375 159.148437 0 2.796876-.070313 5.566407-.210938 8.324219-43.175781 38.226563-99.957031 61.421875-162.144531 61.421875s-118.96875-23.195312-162.144531-61.421875c-.140625-2.757812-.210938-5.527343-.210938-8.324219 0-78.617187 55.882813-144.191406 130.09375-159.148437zm0 0" fill="#e8e8e8"/><path d="m265.246094 489.378906c2.074218-.078125 4.144531-.179687 6.207031-.308594-56.117187-3.496093-107.121094-25.890624-146.691406-60.925781-10.722657-9.488281-20.597657-19.910156-29.519531-31.125-1.046876 7.453125-1.597657 15.0625-1.597657 22.800781 0 2.792969.070313 5.5625.210938 8.324219 13.492187 11.945313 28.316406 22.421875 44.214843 31.183594 7.949219 4.378906 16.167969 8.332031 24.625 11.820313 28.753907 11.871093 60.265626 18.417968 93.304688 18.417968 1.628906 0 7.789062-.132812 9.246094-.1875zm0 0" fill="#d2d1d7"/><path d="m288.261719 260.671875c-1.617188 16.394531-15.441407 29.207031-32.261719 29.207031s-30.648438-12.8125-32.261719-29.207031c10.433594-2.097656 21.21875-3.207031 32.261719-3.207031s21.828125 1.109375 32.261719 3.207031zm0 0" fill="#333a41"/><g fill="#de8957"><path d="m171.042969 54.890625-8.554688 3.128906c-7.617187 2.785157-13.359375 9.167969-15.324219 17.039063l-.378906 1.5c-3.558594 14.238281 6.132813 28.382812 20.695313 30.203125l19.875 2.484375c9.503906 1.1875 18.824219-3.28125 23.851562-11.433594 6.96875-11.304688 3.648438-26.101562-7.484375-33.339844l-10.945312-7.117187c-6.453125-4.195313-14.503906-5.109375-21.734375-2.464844zm0 0"/><path d="m189.128906 160.757812-.484375-1.882812c-2.945312-11.464844-14.929687-18.09375-26.210937-14.496094-7.558594 2.410156-13.058594 8.949219-14.144532 16.808594l-.25 1.816406c-1.613281 11.675782 6.882813 22.320313 18.621094 23.339844l.734375.0625c14.152344 1.230469 25.269531-11.890625 21.734375-25.648438zm0 0"/><path d="m67.546875 174.769531c-6.960937 5.261719-9.992187 14.246094-7.648437 22.648438l1.03125 3.695312c2.746093 9.832031 12.101562 16.316407 22.269531 15.441407l.421875-.035157c14.171875-1.21875 23.15625-15.757812 17.914062-28.976562l-1.453125-3.660157c-5.167969-13.039062-21.34375-17.570312-32.535156-9.113281zm0 0"/><path d="m79.824219 263.207031-8.789063 1.609375c-8.964844 1.644532-15.863281 8.859375-17.101562 17.886719l-.628906 4.582031c-1.554688 11.332032 6.203124 21.839844 17.488281 23.691406l2.671875.4375c6.644531 1.089844 13.40625-1.054687 18.207031-5.773437l6.746094-6.632813c7.164062-7.039062 8.371093-18.148437 2.894531-26.5625-4.644531-7.128906-13.117188-10.773437-21.488281-9.238281zm0 0"/><path d="m340.957031 54.890625 8.554688 3.128906c7.617187 2.785157 13.359375 9.167969 15.324219 17.039063l.378906 1.5c3.558594 14.238281-6.132813 28.382812-20.695313 30.203125l-19.875 2.484375c-9.503906 1.1875-18.824219-3.28125-23.851562-11.433594-6.96875-11.304688-3.644531-26.101562 7.484375-33.339844l10.945312-7.117187c6.453125-4.195313 14.503906-5.109375 21.734375-2.464844zm0 0"/><path d="m322.871094 160.757812.484375-1.882812c2.945312-11.464844 14.929687-18.09375 26.210937-14.496094 7.558594 2.410156 13.058594 8.949219 14.144532 16.808594l.25 1.816406c1.613281 11.675782-6.882813 22.320313-18.621094 23.339844l-.734375.0625c-14.152344 1.230469-25.269531-11.890625-21.734375-25.648438zm0 0"/><path d="m444.453125 174.769531c6.960937 5.261719 9.992187 14.246094 7.648437 22.648438l-1.03125 3.695312c-2.746093 9.832031-12.101562 16.316407-22.269531 15.441407l-.421875-.035157c-14.167968-1.21875-23.15625-15.757812-17.914062-28.976562l1.453125-3.660157c5.167969-13.039062 21.34375-17.570312 32.535156-9.113281zm0 0"/><path d="m432.175781 263.207031 8.789063 1.609375c8.964844 1.644532 15.863281 8.859375 17.101562 17.886719l.628906 4.582031c1.554688 11.332032-6.203124 21.839844-17.488281 23.691406l-2.671875.4375c-6.644531 1.089844-13.40625-1.054687-18.207031-5.773437l-6.746094-6.632813c-7.164062-7.039062-8.371093-18.148437-2.894531-26.5625 4.644531-7.128906 13.117188-10.773437 21.488281-9.238281zm0 0"/></g><path d="m357.371094 231.804688c-4.269532 0-7.726563 3.457031-7.726563 7.726562v19.707031c0 4.269531 3.457031 7.726563 7.726563 7.726563 4.265625 0 7.726562-3.457032 7.726562-7.726563v-19.707031c0-4.269531-3.460937-7.726562-7.726562-7.726562zm0 0" fill="#333a41"/><path d="m154.632812 231.804688c-4.269531 0-7.726562 3.457031-7.726562 7.726562v19.707031c0 4.269531 3.457031 7.726563 7.726562 7.726563 4.265626 0 7.726563-3.457032 7.726563-7.726563v-19.707031c0-4.269531-3.460937-7.726562-7.726563-7.726562zm0 0" fill="#333a41"/><path d="m293.347656 311.660156c-3.214844-2.808594-8.09375-2.480468-10.902344.730469-2.5 2.859375-6.257812 4.496094-10.316406 4.496094-4.054687 0-7.816406-1.636719-10.3125-4.496094-1.457031-1.648437-3.613281-2.632813-5.820312-2.632813-2.195313 0-4.367188.980469-5.8125 2.632813-2.5 2.859375-6.257813 4.496094-10.316406 4.496094-4.054688 0-7.816407-1.636719-10.3125-4.496094-2.808594-3.210937-7.691407-3.539063-10.902344-.730469-3.210938 2.808594-3.542969 7.6875-.730469 10.902344 5.429687 6.214844 13.429687 9.777344 21.945313 9.777344 5.839843 0 11.4375-1.675782 16.132812-4.734375 4.691406 3.058593 10.289062 4.734375 16.128906 4.734375 8.515625 0 16.515625-3.5625 21.949219-9.777344 2.808594-3.214844 2.480469-8.09375-.730469-10.902344zm0 0" fill="#333a41"/></svg>