<svg height="512pt" viewBox="-68 0 511 512" width="512pt" xmlns="http://www.w3.org/2000/svg"><path d="m286.25 305.574219c19.722656-53.957031 18.589844-106.082031 17.476562-157.050781l-129.84375 2.84375c1.464844 67.007812 2.347657 107.453124-35.859374 154.207031zm0 0" fill="#73d98b"/><path d="m173.882812 151.367188c.617188 28.355468 1.121094 51.945312-1.382812 73.277343 11 9.304688 21.792969 16.171875 30.414062 20.925781 10.800782 5.953126 23.023438 9.101563 35.34375 9.101563 12.316407 0 24.539063-3.148437 35.34375-9.101563 8.308594-4.582031 18.632813-11.128906 29.21875-19.925781 2.019532-26.050781 1.460938-51.726562.902344-77.117187zm0 0" fill="#00c756"/><path d="m175.09375 305.574219h78.9375c22.003906-52.300781 20.890625-103.292969 19.730469-156.394531l-.003907-.117188-69.914062 1.648438c1.332031 60.859374 2.332031 106.785156-28.75 154.863281zm0 0" fill="#f8d070"/><path d="m321.164062 401.613281h-265.714843c-30.347657 0-54.949219 24.601563-54.949219 54.949219 0 30.34375 24.601562 54.945312 54.949219 54.945312h265.714843c30.34375 0 54.945313-24.601562 54.945313-54.945312 0-30.347656-24.601563-54.949219-54.945313-54.949219zm0 0" fill="#73d98b"/><path d="m21.105469 456.5625c0-30.347656 24.597656-54.949219 54.945312-54.949219h-20.605469c-30.34375 0-54.945312 24.601563-54.945312 54.949219 0 30.34375 24.601562 54.945312 54.945312 54.945312h20.605469c-30.347656 0-54.945312-24.601562-54.945312-54.945312zm0 0" fill="#00c756"/><path d="m286.195312 291.71875h-195.78125c-30.347656 0-54.945312 24.601562-54.945312 54.949219 0 30.34375 24.597656 54.945312 54.945312 54.945312h195.78125c30.347657 0 54.949219-24.601562 54.949219-54.945312 0-30.347657-24.601562-54.949219-54.949219-54.949219zm0 0" fill="#b9ebc2"/><path d="m56.070312 346.667969c0-30.347657 24.601563-54.949219 54.945313-54.949219h-20.601563c-30.347656 0-54.949218 24.601562-54.949218 54.949219 0 30.347656 24.601562 54.945312 54.949218 54.945312h20.601563c-30.34375 0-54.945313-24.601562-54.945313-54.945312zm0 0" fill="#73d98b"/><g fill="#00c756"><path d="m55.449219 401.613281 34.738281 39.679688c5.226562 5.96875 14.511719 5.96875 19.742188 0l34.738281-39.679688zm0 0"/><path d="m90.414062 291.71875 34.738282 39.679688c5.226562 5.96875 14.515625 5.96875 19.742187 0l34.738281-39.679688zm0 0"/><path d="m286.195312 291.71875-34.738281 39.679688c-5.226562 5.96875-14.515625 5.96875-19.742187 0l-34.738282-39.679688zm0 0"/><path d="m321.164062 401.613281-34.742187 39.679688c-5.222656 5.96875-14.511719 5.96875-19.738281 0l-34.738282-39.679688zm0 0"/><path d="m232.914062 512-34.738281-39.675781c-5.226562-5.972657-14.515625-5.972657-19.742187 0l-34.738282 39.675781zm0 0"/><path d="m232.914062 401.613281-34.738281-39.675781c-5.226562-5.972656-14.515625-5.972656-19.742187 0l-34.738282 39.675781zm0 0"/></g><path d="m273.761719 149.179688-.003907-.117188-69.914062 1.648438c.765625 34.871093 1.40625 64.832031-4.019531 93.113281 1.054687.609375 2.089843 1.191406 3.089843 1.746093 10.800782 5.953126 23.023438 9.101563 35.34375 9.101563 11.050782 0 22.019532-2.542969 31.960938-7.363281 4.976562-32.441406 4.269531-64.871094 3.542969-98.128906zm0 0" fill="#ffb25a"/><path d="m238.257812 0c-50.667968 0-91.746093 41.074219-91.746093 91.746094 0 .867187.015625 11.71875.039062 12.582031 1.125 65.503906 44.605469 99.464844 71.285157 114.175781 12.726562 7.015625 28.117187 7.015625 40.84375 0 26.679687-14.710937 70.160156-48.671875 71.285156-114.175781.023437-.863281.035156-11.71875.035156-12.582031.003906-50.671875-41.074219-91.746094-91.742188-91.746094zm0 0" fill="#b9ebc2"/><path d="m185.808594 161.742188c-4.269532 0-7.726563-3.457032-7.726563-7.726563v-10.394531c0-4.265625 3.457031-7.726563 7.726563-7.726563 4.265625 0 7.726562 3.460938 7.726562 7.726563v10.394531c0 4.269531-3.460937 7.726563-7.726562 7.726563zm0 0" fill="#333a41"/><path d="m290.707031 161.742188c-4.265625 0-7.726562-3.457032-7.726562-7.726563v-10.394531c0-4.265625 3.460937-7.726563 7.726562-7.726563s7.726563 3.460938 7.726563 7.726563v10.394531c0 4.269531-3.460938 7.726563-7.726563 7.726563zm0 0" fill="#333a41"/><path d="m227.332031 190.210938c-2.4375-2.441407-6.394531-2.441407-8.832031 0-2.4375 2.4375-2.4375 6.390624 0 8.832031 2.4375 2.4375 9.542969 5.585937 11.980469 3.148437 2.4375-2.441406-.710938-9.542968-3.148438-11.980468zm0 0" fill="#333a41"/><path d="m249.179688 190.210938c2.441406-2.441407 6.394531-2.441407 8.832031 0 2.441406 2.4375 2.441406 6.390624 0 8.832031-2.4375 2.4375-9.539063 5.585937-11.976563 3.148437-2.441406-2.441406.707032-9.542968 3.144532-11.980468zm0 0" fill="#333a41"/></svg>