<svg height="512pt" viewBox="-2 0 512 512" width="512pt" xmlns="http://www.w3.org/2000/svg"><path d="m501.695312 52.308594c-1.039062-2.808594-3.328124-4.984375-6.183593-5.890625-12.175781-3.863281-47.550781-11.78125-87.015625 9.996093l72.78125 106.949219s42.554687-51.121093 20.417968-111.054687zm0 0" fill="#f8d070"/><path d="m455.71875 150.699219-.105469.125c1.28125-1.578125 28.738281-36.082031 18.53125-77.074219-4.078125-.765625-9.210937-1.386719-15.140625-1.386719-11.882812 0-26.949218 2.503907-43.03125 11.382813zm0 0" fill="#ff8f71"/><path d="m6.382812 52.308594c1.039063-2.808594 3.328126-4.984375 6.183594-5.890625 12.175782-3.863281 47.550782-11.78125 87.015625 9.996093l-72.78125 106.949219s-42.558593-51.121093-20.417969-111.054687zm0 0" fill="#f8d070"/><path d="m52.359375 150.699219.101563.125c-1.277344-1.578125-28.734376-36.082031-18.53125-77.074219 4.078124-.765625 9.214843-1.386719 15.140624-1.386719 11.886719 0 26.953126 2.503907 43.035157 11.382813zm0 0" fill="#ff8f71"/><path d="m254.039062 0c-132.347656 0-239.636718 107.289062-239.636718 239.636719 0 168.417969 145.476562 197.140625 215.542968 262.875 6.523438 6.121093 15.148438 9.488281 24.09375 9.488281 8.945313 0 17.574219-3.367188 24.09375-9.488281 70.066407-65.734375 215.542969-94.457031 215.542969-262.875 0-132.347657-107.289062-239.636719-239.636719-239.636719zm0 0" fill="#de8957"/><path d="m260.847656 502.511719c-70.0625-65.734375-215.539062-94.457031-215.539062-262.875 0-127.15625 99.039062-231.160157 224.183594-239.125-5.113282-.328125-10.261719-.511719-15.453126-.511719-132.347656 0-239.636718 107.289062-239.636718 239.636719 0 168.417969 145.476562 197.140625 215.542968 262.875 6.523438 6.121093 15.148438 9.488281 24.09375 9.488281 5.398438 0 10.675782-1.234375 15.453126-3.554688-3.136719-1.519531-6.058594-3.507812-8.644532-5.933593zm0 0" fill="#c76d33"/><path d="m268.023438 147.925781c-8.375 5.851563-19.59375 5.851563-27.96875 0-84.59375-59.105469-174.710938-14.570312-174.710938 99.628907 0 104.214843 84.480469 188.695312 188.695312 188.695312 104.210938 0 188.695313-84.480469 188.695313-188.695312 0-114.199219-90.117187-158.734376-174.710937-99.628907zm0 0" fill="#f8d070"/><path d="m96.25 247.554688c0-72.511719 36.335938-116.921876 84.519531-124.5625-62.671875-9.40625-115.425781 37.1875-115.425781 124.5625 0 104.214843 84.480469 188.695312 188.695312 188.695312 5.203126 0 10.355469-.222656 15.453126-.632812-96.984376-7.863282-173.242188-89.054688-173.242188-188.0625zm0 0" fill="#ffb25a"/><g fill="#333a41"><path d="m167.226562 263.214844c4.269532 0 7.726563-3.460938 7.726563-7.726563v-15.710937c0-4.269532-3.457031-7.726563-7.726563-7.726563-4.265624 0-7.726562 3.457031-7.726562 7.726563v15.710937c0 4.265625 3.460938 7.726563 7.726562 7.726563zm0 0"/><path d="m340.851562 263.214844c4.265626 0 7.726563-3.460938 7.726563-7.726563v-15.710937c0-4.269532-3.460937-7.726563-7.726563-7.726563-4.269531 0-7.726562 3.457031-7.726562 7.726563v15.710937c0 4.265625 3.457031 7.726563 7.726562 7.726563zm0 0"/><path d="m233.414062 260.855469c6.269532 2.699219 13.257813 4.207031 20.625 4.207031 7.367188 0 14.355469-1.507812 20.625-4.207031 6.582032-2.835938 4.574219-12.652344-2.589843-12.652344h-36.070313c-7.167968 0-9.171875 9.816406-2.589844 12.652344zm0 0"/><path d="m297.542969 279.152344c-3.214844-2.808594-8.09375-2.484375-10.902344.730468-3.253906 3.722657-8.136719 5.859376-13.394531 5.859376-5.253906 0-10.136719-2.136719-13.390625-5.859376-1.453125-1.660156-3.609375-2.632812-5.816407-2.632812-2.199218 0-4.367187.972656-5.816406 2.632812-3.253906 3.722657-8.136718 5.859376-13.394531 5.859376-5.253906 0-10.136719-2.136719-13.390625-5.859376-2.808594-3.210937-7.6875-3.539062-10.902344-.730468-3.210937 2.808594-3.539062 7.6875-.730468 10.902344 6.1875 7.078124 15.308593 11.140624 25.023437 11.140624 7.007813 0 13.699219-2.121093 19.210937-5.957031 5.511719 3.835938 12.203126 5.957031 19.207032 5.957031 9.71875 0 18.839844-4.0625 25.027344-11.140624 2.808593-3.214844 2.480468-8.09375-.730469-10.902344zm0 0"/></g><path d="m167.976562 275.339844h-23.691406c-4.265625 0-7.726562 3.460937-7.726562 7.726562 0 4.269532 3.460937 7.726563 7.726562 7.726563h23.691406c4.269532 0 7.726563-3.457031 7.726563-7.726563 0-4.265625-3.457031-7.726562-7.726563-7.726562zm0 0" fill="#ff8997"/><path d="m363.792969 275.339844h-23.695313c-4.265625 0-7.726562 3.460937-7.726562 7.726562 0 4.269532 3.460937 7.726563 7.726562 7.726563h23.695313c4.265625 0 7.722656-3.457031 7.722656-7.726563 0-4.265625-3.457031-7.726562-7.722656-7.726562zm0 0" fill="#ff8997"/></svg>