<svg height="511pt" viewBox="1 -70 511.99999 511" width="511pt" xmlns="http://www.w3.org/2000/svg"><path d="m512 100.960938c0 55.484374-44.976562 100.460937-100.460938 100.460937-55.484374 0-100.460937-44.976563-100.460937-100.460937 0-55.484376 44.976563-100.460938 100.460937-100.460938 55.484376 0 100.460938 44.976562 100.460938 100.460938zm0 0" fill="#77889a"/><path d="m455.988281 100.960938c0 24.550781-19.902343 44.449218-44.449219 44.449218-24.550781 0-44.449218-19.898437-44.449218-44.449218 0-24.546876 19.898437-44.449219 44.449218-44.449219 24.546876 0 44.449219 19.902343 44.449219 44.449219zm0 0" fill="#ffbfc5"/><path d="m156.625 341.375c-45.722656-31.570312-75.679688-84.351562-75.679688-144.125 0-96.675781 78.367188-175.054688 175.054688-175.054688s175.054688 78.378907 175.054688 175.054688c0 59.773438-29.957032 112.554688-75.679688 144.125zm0 0" fill="#a5b0bc"/><path d="m111.851562 197.25c0-91.46875 70.15625-166.546875 159.597657-174.371094-14.019531-1.226562-28.199219-.792968-42.109375 1.332032-17.101563 2.613281-33.789063 7.835937-49.371094 15.347656-18.375-23.753906-47.152344-39.058594-79.507812-39.058594-55.484376 0-100.460938 44.980469-100.460938 100.460938 0 48.816406 34.820312 89.496093 80.980469 98.566406.757812 56.011718 29.28125 109.835937 75.644531 141.847656h30.90625c-45.726562-31.570312-75.679688-84.351562-75.679688-144.125zm0 0" fill="#77889a"/><path d="m355.375 341.375v.011719c-28.230469 19.5-62.472656 30.917969-99.375 30.917969s-71.144531-11.417969-99.375-30.917969v-.011719c-11.324219-94.996094 60.355469-120.441406 60.355469-120.441406h78.042969c-.003907 0 71.675781 25.445312 60.351562 120.441406zm0 0" fill="#e8e8e8"/><path d="m267.5625 371.921875c.046875-.003906 2.644531-.191406 3.890625-.300781-30.992187-2.707032-59.675781-13.488282-83.921875-30.246094-11.746094-8.109375-22.441406-17.628906-31.867188-28.296875-.507812 8.664063-.257812 18.074219.960938 28.308594 1.765625 1.21875 3.550781 2.40625 5.363281 3.558593 5.429688 3.464844 11.066407 6.636719 16.886719 9.5 23.269531 11.4375 49.449219 17.859376 77.125 17.859376 1.253906 0 8.964844-.214844 11.5625-.382813zm0 0" fill="#d2d1d7"/><path d="m295.019531 252.476562v12.125c0 10.78125-4.367187 20.527344-11.425781 27.597657-7.058594 7.054687-16.820312 11.425781-27.59375 11.425781-21.554688 0-39.023438-17.46875-39.023438-39.023438v-12.125zm0 0" fill="#333a41"/><path d="m295.019531 220.933594v31.542968c-11.695312 6.011719-24.960937 9.402344-39.019531 9.402344s-27.324219-3.390625-39.019531-9.402344v-31.542968c0-21.554688 17.464843-39.03125 39.019531-39.03125s39.019531 17.476562 39.019531 39.03125zm0 0" fill="#3d4851"/><path d="m342.558594 210.300781c-4.265625 0-7.726563-3.457031-7.726563-7.726562v-14.027344c0-4.269531 3.460938-7.726563 7.726563-7.726563s7.726562 3.457032 7.726562 7.726563v14.027344c0 4.269531-3.460937 7.726562-7.726562 7.726562zm0 0" fill="#333a41"/><path d="m363.355469 237.839844h-15.453125c-4.269532 0-7.726563-3.457032-7.726563-7.726563 0-4.265625 3.457031-7.726562 7.726563-7.726562h15.453125c4.269531 0 7.726562 3.460937 7.726562 7.726562 0 4.269531-3.457031 7.726563-7.726562 7.726563zm0 0" fill="#ffbfc5"/><path d="m164.097656 237.839844h-15.453125c-4.269531 0-7.726562-3.457032-7.726562-7.726563 0-4.265625 3.457031-7.726562 7.726562-7.726562h15.453125c4.269532 0 7.726563 3.460937 7.726563 7.726562 0 4.269531-3.457031 7.726563-7.726563 7.726563zm0 0" fill="#ffbfc5"/><path d="m169.441406 210.300781c-4.265625 0-7.726562-3.457031-7.726562-7.726562v-14.027344c0-4.269531 3.460937-7.726563 7.726562-7.726563s7.726563 3.457032 7.726563 7.726563v14.027344c0 4.269531-3.460938 7.726562-7.726563 7.726562zm0 0" fill="#333a41"/><path d="m133.960938 71.765625c-8.148438-9.34375-20.132813-15.253906-33.5-15.253906-24.550782 0-44.449219 19.898437-44.449219 44.449219 0 20.660156 14.097656 38.027343 33.199219 43.011718 8.84375-27.707031 24.394531-52.410156 44.75-72.207031zm0 0" fill="#ffbfc5"/></svg>