<?xml version="1.0" encoding="utf-8"?>
<!-- Generator: Adobe Illustrator 22.1.0, SVG Export Plug-In . SVG Version: 6.00 Build 0)  -->
<svg version="1.1" id="Layer_1" xmlns="http://www.w3.org/2000/svg" xmlns:xlink="http://www.w3.org/1999/xlink" x="0px" y="0px"
	 viewBox="0 0 22 15.6" style="enable-background:new 0 0 22 15.6;" xml:space="preserve">
<style type="text/css">
	.st0{clip-path:url(#SVGID_2_);}
	.st1{clip-path:url(#SVGID_4_);}
	.st2{clip-path:url(#SVGID_6_);}
	.st3{clip-path:url(#SVGID_8_);fill:#000105;}
	.st4{clip-path:url(#SVGID_10_);enable-background:new    ;}
	.st5{clip-path:url(#SVGID_12_);}
	.st6{clip-path:url(#SVGID_14_);fill:#3f51b5;}
	.st7{clip-path:url(#SVGID_16_);}
	.st8{clip-path:url(#SVGID_18_);enable-background:new    ;}
	.st9{clip-path:url(#SVGID_20_);}
	.st10{clip-path:url(#SVGID_22_);fill:#1A1919;}
	.st11{clip-path:url(#SVGID_24_);}
	.st12{clip-path:url(#SVGID_26_);#3f51b5;}
</style>
<title>other/logos/cosmodrome</title>
<desc>Created with Sketch.</desc>

<g>
	<defs>
		<path id="SVGID_15_" d="M10.3,4.5c0.2-0.2,0.4-0.5,0.6-0.6c2-1.5,3.5-0.4,4.9,0.6c1.3,0.8,2.4,0.8,2.9,0.8c0.5,0,1.2-0.1,1.7-0.3
			c0.2-0.1,0.5-0.5,0.9-0.4c0.4,0.1,0.6,0.7,0.6,1c0,0.2-0.1,0.3-0.5,0.5c-2.1,0.6-4.2,0.8-4.9,3.1c-0.6,2-0.3,5-0.1,6.5h-6
			c0-1.1,0-2.6-1.6-2.6c-1.6,0-1.6,1.6-1.5,2.6H2c-0.2-1.5-0.5-4.4,0.1-6.5C2.9,6.8,4.9,6.7,7,6.1c0.4-0.1,0.5-0.3,0.5-0.5
			c0-0.3-0.2-0.9-0.6-1C6.5,4.5,6.2,4.9,6,5C5.3,5.3,4.4,5.3,3.9,5.2C3.1,5.1,3.3,4.9,2.9,4.8C2.3,4.6,2.2,4.4,2,3.9
			c-0.2-0.4-0.9,0-0.9-1C0.7,2.8,0,2.3,0,1.9c-0.1-0.7,2.7-0.4,3-0.4c0-0.1-1.2-0.8-0.8-1.2c0.7-0.7,4.8,0.1,6,0.5
			c1,0.4,1.4,1,1.3,2.8C9.3,5.7,9.7,5.2,10.3,4.5"/>
	</defs>
	<clipPath id="SVGID_16_">
		<use xlink:href="#SVGID_15_"  style="overflow:visible;"/>
	</clipPath>
	<g class="st7">
		<defs>
			<rect id="SVGID_17_" x="-1" y="-4" width="24" height="24"/>
		</defs>
		<clipPath id="SVGID_18_">
			<use xlink:href="#SVGID_17_"  style="overflow:visible;"/>
		</clipPath>
		<g class="st8">
			<g>
				<defs>
					<rect id="SVGID_19_" x="-5" y="-5" width="32" height="26"/>
				</defs>
				<clipPath id="SVGID_20_">
					<use xlink:href="#SVGID_19_"  style="overflow:visible;"/>
				</clipPath>
				<g class="st9">
					<defs>
						<rect id="SVGID_21_" x="0" y="0" width="22" height="16"/>
					</defs>
					<clipPath id="SVGID_22_">
						<use xlink:href="#SVGID_21_"  style="overflow:visible;"/>
					</clipPath>
					<rect x="-5" y="-5" class="st10" width="32" height="25.6"/>
				</g>
				<g class="st9">
					<defs>
						<rect id="SVGID_23_" x="-1" y="-4" width="24" height="24"/>
					</defs>
					<clipPath id="SVGID_24_">
						<use xlink:href="#SVGID_23_"  style="overflow:visible;"/>
					</clipPath>
					<g class="st11">
						<defs>
							<rect id="SVGID_25_" x="0" y="0" width="22" height="16"/>
						</defs>
						<clipPath id="SVGID_26_">
							<use xlink:href="#SVGID_25_"  style="overflow:visible;"/>
						</clipPath>
						<rect x="-6" y="-9" class="st12" width="34" height="34"/>
					</g>
				</g>
			</g>
		</g>
	</g>
</g>
</svg>
